@startuml
' hide the spot
hide circle
' avoid problems with angled crows feet
skinparam linetype ortho

entity User {
    id primary
    email unique
}
entity Order {
    id primary
    created date
    amount decimal
}
User ||--o{  Order

entity OrderItems {
    id primary
    price decimal
    quantity int
    ---
    фіксує ціну та кількість
}
OrderItems }|--|| Order


entity Product {
    id primary
    name str
    price decimal
}
Product ||--o{ OrderItems

@enduml
